<?xml version="1.0" encoding="UTF-8"?><svg xmlns="http://www.w3.org/2000/svg" width="137" height="96" viewBox="0 0 137 96"><defs><style>.e{fill:#1d384a;}</style></defs><g id="a"/><g id="b"><g id="c"><path id="d" class="e" d="M0,68.681c.018-.14,.049-.281,.052-.422,.034-1.391,.082-2.782,.09-4.174,.009-1.724-.021-3.447-.026-5.171-.002-.531,.123-.642,.659-.67,.347-.018,.695-.04,1.042-.065,.413-.029,.486-.108,.491-.536,.004-.395,0-.79,0-1.229,.21-.017,.396-.048,.582-.044,.767,.014,1.535,.079,2.3,.053,2.272-.079,4.546,.033,6.817-.074,.084-.004,.168-.003,.252-.002,.434,.003,.498,.069,.504,.497,.005,.335,.004,.671,.032,1.004,.024,.277,.176,.412,.482,.398,.394-.019,.792-.003,1.186,.023,.188,.012,.373,.08,.617,.136,0,.441-.004,.883,.001,1.325,.008,.682,.01,1.364,.041,2.044,.015,.323-.076,.463-.42,.443-.467-.027-.937,.002-1.403-.024-.313-.018-.436,.106-.449,.406-.017,.383-.069,.765-.079,1.148-.008,.284-.11,.411-.408,.409-.492-.003-.99,.083-1.474,.03-1.674-.182-3.347,.033-5.02-.031-.979-.038-1.96-.013-2.94-.006-.436,.003-.524,.111-.519,.538,.015,1.236,.043,2.471,.033,3.707-.005,.54-.091,1.08-.148,1.708-.652,0-1.308,.006-1.965-.006-.111-.002-.221-.077-.331-.118,0-.432,0-.864,0-1.296Zm7.616-6.701v.015c1.584,0,3.168-.006,4.753,.005,.338,.002,.463-.18,.452-.46-.032-.886-.091-1.771-.134-2.657-.017-.341-.208-.453-.523-.44-.347,.014-.695,.017-1.043,.02-2.711,.017-5.423,.035-8.134,.046-.215,0-.39,.021-.424,.27-.043,.307-.1,.616-.103,.924-.006,.612,.037,1.224,.029,1.835-.005,.335,.137,.445,.448,.444,1.56-.005,3.12-.002,4.679-.002ZM84.471,21.804c-2.881,0-5.761-.002-8.642,.002-.497,0-.617,.127-.629,.618-.028,1.115-.06,2.23-.075,3.345-.018,1.295-.036,2.591-.02,3.886,.008,.598,.079,.63,.695,.619,.768-.013,1.537-.015,2.304-.049,1.402-.063,2.802-.201,4.204-.211,3.612-.025,7.221,.215,10.837,.089,1.75-.061,3.509-.07,5.27,.101,1.565,.151,3.147-.088,4.733-.038,3.07,.097,6.145,.001,9.218-.013,.755-.003,1.015,.263,1.016,1.015,.002,1.56,.021,3.12,.01,4.68-.011,1.667-.04,3.333-.078,5-.014,.612-.31,1.099-.792,1.469-.407,.313-.877,.417-1.384,.426-5.269,.093-10.538,.194-15.807,.278-.484,.008-.97-.085-1.455-.133-.107-.011-.212-.041-.318-.041-1.908,.003-3.816,.017-5.724,.012-1.188-.003-2.376-.045-3.564-.049-1.988-.007-3.964,.231-5.962,.154-3.309-.127-6.624-.095-9.937-.117-.701-.005-.869,.175-.876,.881-.018,1.811-.037,3.623-.025,5.434,.009,1.373,.813,2.153,2.179,2.179,1.908,.037,3.816,.09,5.725,.11,1.067,.011,2.137,.013,3.2-.06,1.451-.101,2.895-.181,4.347-.011,.689,.081,1.389,.111,2.083,.108,2.833-.012,5.666-.071,8.498-.063,2.652,.007,5.304,.123,7.956,.107,3.637-.022,7.273-.11,10.909-.197,1.393-.033,2.138-.853,2.145-2.255,.005-.864-.002-1.728,.016-2.592,.021-1.008,.68-1.807,1.68-1.945,.6-.083,1.226-.085,1.829-.023,1.155,.119,2.299,.045,3.445-.061,.548-.051,.749-.271,.785-.835,.029-.453,.042-.908,.057-1.362,.017-.49,.042-.981,.04-1.471-.006-1.554-.166-3.098-.074-4.665,.119-2.043-.009-4.102-.066-6.154-.026-.933-.14-1.016-1.061-1.031-1.968-.033-3.937-.053-5.905-.074-.654-.007-.843-.082-.853-.725-.025-1.507,.031-3.017,.086-4.524,.012-.331,.361-.607,.656-.614,1.857-.046,3.714-.089,5.571-.128,.372-.008,.744,.01,1.116,.003,.436-.008,.645-.224,.63-.649-.036-1.055-.081-2.109-.121-3.164-.051-1.343-.144-2.686-.139-4.029,.007-1.932,.088-3.863,.133-5.795,.03-1.294-.868-2.18-2.156-2.153-1.486,.032-2.973,.056-4.46,.079-.763,.011-1.16-.372-1.174-1.127-.031-1.608-.054-3.216-.087-4.824-.012-.564-.289-.854-.849-.916-.119-.013-.239-.024-.359-.032-1.497-.099-2.992-.078-4.494-.043-3.812,.089-7.626,.092-11.44,.093-2.268,0-4.536-.09-6.804-.095-1.183-.003-2.368,.153-3.55,.131-2.747-.052-5.492-.193-8.238-.248-1.065-.022-2.135,.145-3.2,.125-1.679-.032-3.357-.166-5.036-.221-.862-.028-1.726,.016-2.588,.039-.328,.009-.46,.163-.458,.526,.013,2.376,0,4.752-.008,7.128-.003,.701,.164,.869,.87,.85,1.259-.035,2.524-.155,3.777-.083,2.411,.138,4.821,.184,7.234,.144,.767-.012,1.539-.088,2.301-.035,2.041,.142,4.078,.033,6.118,.007,3.348-.043,6.696-.036,10.045-.055,1.006-.006,2.012-.026,3.017-.046,.323-.006,.647-.051,.97-.043,1.08,.027,2.159,.074,3.239,.105,2.412,.07,4.824,.13,7.235,.204,.714,.022,.957,.318,.987,1.037,.04,.944,.118,1.887,.179,2.831,.006,.095,.014,.191,.012,.286-.04,1.871-.084,3.742-.12,5.613-.003,.166,.028,.335,.063,.498,.132,.615,.202,1.231,.026,1.849-.114,.399-.495,.701-.892,.707-2.995,.044-5.99,.104-8.986,.125-3.525,.025-7.051,.017-10.576,.02-2.821,.002-5.641,0-8.462,0v.089ZM27.661,.19c2.509,0,5.018-.011,7.527,.007,.755,.005,1.509,.13,2.264,.127,1.715-.006,3.429-.086,5.144-.085,2.603,.001,5.207,.047,7.81,.072,.972,.009,1.945,.023,2.917,.015,.951-.008,1.902-.061,2.853-.057,1.023,.004,1.1,.087,1.258,1.102,.189,1.208,.139,2.412-.03,3.62-.054,.384,.012,.785,.021,1.178,.006,.249,.016,.499,.01,.748-.007,.329,.162,.515,.505,.513,2.004-.01,4.008-.023,6.012-.036,1.189-.007,1.292,.092,1.299,1.277,.024,4.463,.047,8.926,.071,13.389,.004,.728-.135,.836-.865,.834-.572-.002-1.144,.082-1.718,.098-.609,.017-1.218-.003-1.827-.003-.887,0-1.775-.009-2.661,.011-.423,.01-.724,.343-.76,.767-.001,.012-.002,.024-.002,.036-.01,1.375-.05,2.751-.022,4.126,.029,1.43-.769,2.293-2.198,2.284-1.452-.009-2.919,.101-4.354-.062-1.931-.22-3.861-.183-5.775-.084-1.665,.086-3.326,.053-4.987,.1-.15,.004-.301-.096-.454-.14-.07-.02-.147-.038-.217-.028-.484,.071-.965,.203-1.449,.215-1.284,.032-2.569,.012-3.853,.013-.096,0-.197-.019-.287,.004-1.485,.37-2.985,.066-4.476,.091-1.764,.03-3.529-.018-5.293-.04-.816-.01-1.631-.056-2.446-.057-1.223-.003-2.083,.869-2.093,2.081-.014,1.667-.061,3.334-.046,5,.023,2.627,.197,5.259,.085,7.879-.063,1.473,.109,2.925,.054,4.388-.043,1.133-.87,1.999-2.009,2.032-1.752,.051-3.503,.103-5.255,.13-.453,.007-.908-.069-1.361-.122-.289-.033-.457-.214-.469-.504-.023-.563-.044-1.127-.04-1.69,.004-.766,.05-1.532,.045-2.298-.008-1.295-.047-2.589-.059-3.884-.004-.395,.062-.79,.057-1.185-.015-1.161-.062-2.321-.073-3.482-.011-1.246-.004-2.492,.01-3.737,.021-1.823,.077-3.645,.081-5.468,.009-3.659,0-7.319-.017-10.979-.002-.49-.126-.979-.129-1.468-.006-.8,.065-1.601,.059-2.401-.011-1.728-.046-3.456-.08-5.184-.025-1.274,.773-2.145,2.056-2.186,1.08-.034,2.16-.039,3.241-.047,1.327-.01,2.187-.859,2.184-2.188-.003-1.368-.024-2.736-.034-4.104-.004-.537,.209-.738,.742-.73,3.012,.045,6.025,.086,9.037,.129v-.019Zm-3.779,8.759l-.002-.047c-1.092,0-2.185-.004-3.277,.001-.603,.003-.722,.088-.821,.667-.07,.411-.106,.832-.119,1.25-.035,1.112-.049,2.225-.074,3.338-.002,.095-.03,.19-.035,.286-.033,.667-.105,1.335-.085,2.001,.034,1.113,.128,2.223,.197,3.335,.024,.394,.041,.789,.081,1.181,.009,.088,.09,.231,.156,.242,.538,.094,1.079,.212,1.621,.223,.511,.011,1.024-.14,1.537-.148,1.104-.019,2.21-.025,3.313,.026,1.102,.05,2.198,.215,3.3,.258,1.475,.058,2.952,.047,4.429,.066,2.183,.029,4.366,.083,6.549,.08,1.306-.002,2.618-.04,3.918-.16,.98-.09,1.948-.245,2.936-.109,.368,.051,.742,.079,1.112,.077,1.608-.008,3.217-.032,4.825-.048,.504-.005,1.012-.047,1.511,.001,.826,.08,1.159-.209,1.126-1.042-.022-.551-.032-1.104-.034-1.655-.005-1.571-.004-3.142-.004-4.713,0-.262-.007-.525,.01-.787,.031-.476,.105-.95,.111-1.425,.008-.684-.032-1.368-.044-2.051-.014-.806-.054-.873-.843-.886-1.763-.029-3.526-.044-5.289-.044-.899,0-1.802-.004-2.695,.084-.715,.071-1.414,.191-2.144,.124-1.063-.099-2.132-.149-3.199-.169-3.12-.06-6.241-.097-9.362-.139-1.464-.02-2.929-.066-4.393-.035-1.438,.03-2.875,.143-4.312,.219Zm28.056,85.942c0-4.477,.003-8.954-.007-13.432,0-.161-.084-.347-.185-.479-1.781-2.354-3.574-4.699-5.354-7.054-.163-.216-.33-.292-.597-.292-15.055,.006-30.111,.006-45.166,.006H.214c0,.171,0,.301,0,.43,0,4.981-.002,9.963,.009,14.944,0,.208,.078,.451,.2,.617,1.277,1.727,2.575,3.439,3.853,5.165,.176,.238,.355,.324,.651,.324,15.524-.008,31.047-.007,46.571-.007h.426c.006-.106,.013-.164,.013-.223Zm63.583,.134c-.065-.512-.144-1.02-.187-1.531-.023-.275-.099-.394-.407-.389-1.079,.019-2.158,.008-3.274,.008-.073,.566-.149,1.109-.21,1.654-.02,.173-.043,.29-.265,.289-1.656-.009-3.313-.008-4.969-.011-.022,0-.044-.016-.109-.041l3.469-21.323h7.789c1.059,6.504,2.118,13.015,3.178,19.526l.08-.002v-.44c0-6.24,.004-12.481-.009-18.721,0-.378,.11-.455,.464-.45,2.256,.03,4.512,.025,6.768,.059,1.228,.019,2.393,.317,3.481,.908,.922,.501,1.373,1.258,1.373,2.305-.004,4.992-.001,9.984-.002,14.977,0,.969-.415,1.697-1.256,2.191-1.216,.713-2.547,.985-3.931,.993-3.925,.023-7.849,.019-11.774,.024-.058,0-.117-.014-.206-.026Zm9.758-4.866c.549-.041,1.077-.037,1.589-.128,.801-.143,1.135-.587,1.142-1.406,.005-.528,.002-1.055,.002-1.583,0-2.315,0-4.63-.003-6.945-.001-.685-.298-1.201-.78-1.373-.635-.227-1.289-.194-1.951-.164v11.6Zm-10.698-2.552c-.363-2.872-.72-5.701-1.078-8.53l-.085,.003c-.358,2.835-.715,5.67-1.076,8.528h2.238Zm-21.472,2.095h-6.826v-16.054h-5.804v4.627h-7.411v3.453h4.346v4.54h-4.358v3.457h7.443v5.383h12.608v-5.406Zm.684-5.406c0-2.579,.013-5.158-.009-7.737-.006-.706,.272-1.211,.81-1.629,1.018-.789,2.164-1.221,3.448-1.281,1.534-.071,3.075-.161,4.591,.156,.685,.143,1.373,.355,2.004,.653,.859,.405,1.271,1.121,1.267,2.114-.02,4.978-.009,9.957-.01,14.935,0,.276-.023,.552-.017,.827,.017,.76-.362,1.291-.956,1.709-.665,.468-1.431,.676-2.213,.802-1.955,.314-3.917,.334-5.869-.02-.879-.16-1.629-.614-2.325-1.162-.495-.39-.732-.877-.728-1.522,.016-2.615,.007-5.23,.007-7.845Zm7.478,.034c0-.768,.007-1.535-.002-2.303-.01-.803-.015-1.606-.063-2.407-.035-.58-.321-.861-.889-.965-.499-.091-.979-.02-1.434,.207-.317,.158-.471,.396-.47,.773,.01,3.13,.011,6.26,0,9.39-.001,.397,.161,.684,.504,.778,.44,.121,.91,.197,1.365,.189,.545-.01,.848-.343,.92-.881,.04-.296,.063-.597,.065-.896,.007-1.295,.003-2.59,.003-3.885ZM33.558,61.335c-.108,1.183-.004,2.384,.006,3.578,.011,1.284,.026,2.568,.028,3.852,0,.31-.055,.619-.063,.929-.006,.25,.1,.385,.391,.377,.515-.015,1.032,.014,1.548,.018,.399,.003,.591-.171,.618-.574,.02-.287,.025-.576,.017-.864-.028-.92-.091-1.84-.093-2.759-.002-.86,.073-1.719,.082-2.579,.014-1.439,0-2.877,.004-4.316,.001-.455,.031-.483,.498-.497,.492-.014,.984-.002,1.476-.016,.968-.028,1.935-.075,2.903-.095,.395-.008,.791,.048,1.187,.052,1.116,.013,2.233,.012,3.349,.02,.329,.002,.643,.221,.66,.487,.042,.658,.167,1.333,.071,1.973-.154,1.036-.013,1.068-1.099,1.067-1.405,0-2.809-.009-4.214-.004-.331,.001-.662,.041-.976,.061-.021,.067-.034,.089-.034,.111,.003,.336,.006,.672,.012,1.008,.009,.473-.04,.554-.522,.638-.339,.059-.688,.088-1.032,.091-.479,.004-.584,.069-.591,.526-.017,1.044-.02,2.088-.028,3.132-.001,.176,0,.352,0,.536,.573,.049,1.097,.103,1.623,.135,.322,.02,.47,.153,.476,.49,.008,.487,.055,.974,.083,1.405,1.138,.322,2.25,.215,3.362,.147,.37-.023,.741-.042,1.111-.039,1.188,.01,2.375,.034,3.563,.046,.117,.001,.245-.025,.347-.078,.082-.042,.185-.144,.187-.222,.015-.668,.008-1.336,.008-2.042-.157,0-.298-.002-.44,0-2.193,.042-4.387,.089-6.58,.122-.37,.006-.74-.064-1.11-.077-.318-.011-.413-.172-.398-.463,.047-.968,.093-1.937,.122-2.906,.01-.336,.139-.46,.481-.455,.959,.012,1.918-.005,2.877-.011,.49-.003,.981-.009,1.471-.011,.486-.002,.971,0,1.466,0-.022-.489-.063-.932-.056-1.375,.006-.411,.203-.564,.613-.56,.36,.004,.722-.023,1.08,.007,.606,.052,.684-.188,.703-.716,.03-.859,.046-1.718,.066-2.577,.004-.19,0-.379,0-.621-.68-.03-1.324-.07-1.969-.084-.471-.011-.654-.179-.615-.651,.022-.274,.086-.546,.107-.82,.017-.223-.044-.395-.334-.392-1.968,.017-3.937,.022-5.905,.04-.551,.005-1.102,.055-1.652,.055-.755,0-1.509-.041-2.264-.038-.385,.001-.523,.164-.528,.525-.003,.216,0,.432,0,.648-.002,.408-.086,.501-.497,.537-.536,.047-1.071,.09-1.62,.135-.06,1.069,.122,2.07,.028,3.094Zm84.144,8.323c-.008,.269,.102,.372,.349,.379,.923,.026,1.846,.083,2.768,.073,2.447-.028,4.894-.088,7.341-.127,.704-.011,1.409,0,2.113,.011,.25,.004,.338-.093,.327-.343-.016-.359,.023-.721-.003-1.079-.026-.354,.132-.426,.443-.41,.431,.022,.863,.007,1.295,.01,.246,.002,.362-.09,.359-.363-.01-1.174-.006-2.349,.004-3.523,.002-.285-.126-.334-.381-.318-.491,.031-.984,.023-1.475,.043-.217,.009-.313-.083-.313-.29,.001-.3,.007-.6,.011-.9,.003-.264,.118-.391,.4-.379,.49,.02,.982,.005,1.472,.029,.265,.013,.357-.06,.351-.34-.024-1.175-.029-2.35-.03-3.525,0-.282-.114-.38-.391-.371-.443,.015-.888-.011-1.331,.005-.314,.011-.431-.118-.426-.423,.006-.359,0-.721-.036-1.078-.011-.109-.131-.286-.216-.295-.414-.045-.834-.06-1.252-.057-1.186,.006-2.371,.033-3.557,.038-.611,.003-1.222-.027-1.833-.034-.514-.006-1.028-.007-1.543-.001-.634,.007-1.269,.024-1.903,.036-.156,.003-.311,.012-.467,.008-.562-.014-1.125-.025-1.686-.053-.27-.014-.367,.111-.369,.357-.004,.528,.002,1.056-.021,1.584-.012,.266,.075,.361,.343,.359,1.112-.01,2.223-.002,3.335-.006,1.271-.004,2.543-.017,3.814-.018,.609,0,1.219,.028,1.828,.027,.922,0,1.844-.007,2.766-.028,.326-.007,.441,.111,.442,.441,.005,.849,.045,1.698,.067,2.546,.008,.29-.113,.437-.432,.427-.635-.02-1.27-.014-1.905-.012-1.75,.004-3.501,.008-5.251,.019-.863,.005-1.726,.019-2.589,.044-.093,.003-.262,.102-.263,.159-.018,.688-.012,1.377-.012,2.138,.618,0,1.216,.011,1.814-.003,1.018-.024,2.036-.087,3.053-.091,1.702-.007,3.405,.02,5.107,.033,.072,0,.168-.026,.211,.01,.099,.083,.244,.196,.246,.299,.014,.85,.01,1.701-.01,2.551-.012,.509-.03,.509-.54,.51-3.334,.006-6.669,.012-10.003,.018-.647,.001-1.293,0-2.019,0,0,.649,.012,1.282-.006,1.913ZM28.554,56.405c-.61,.007-1.22,.074-1.83,.07-.537-.004-1.073-.1-1.61-.103-1.164-.006-2.328,.025-3.492,.033-.804,.006-1.609,.017-2.413-.007-.325-.01-.413,.1-.405,.408,.009,.346-.002,.701-.075,1.037-.034,.156-.218,.363-.366,.394-.346,.073-.712,.065-1.07,.069-.429,.006-.517,.073-.51,.491,.012,.707,.061,1.414,.052,2.12-.03,2.204-.083,4.408-.121,6.613-.007,.398,.166,.564,.557,.568,.396,.004,.793-.015,1.188,.011,.483,.031,.578,.151,.555,.635-.021,.453-.053,.905-.083,1.401,.226,.012,.414,.035,.602,.03,.324-.009,.647-.055,.97-.051,2.529,.033,5.057-.209,7.587-.008,.669,.053,1.342,.056,2.013,.065,.371,.005,.741-.028,1.112-.043,.316-.012,.455-.241,.47-.492,.033-.547,.01-1.097,.01-1.665-.09-.007-.171-.02-.252-.019-1.74,.006-3.481,.001-5.221,.025-1.211,.016-2.421,.1-3.631,.1-.982,0-1.964-.079-2.945-.129-.223-.011-.343-.129-.342-.37,.004-.993,.012-1.986-.01-2.979-.007-.301,.142-.376,.378-.391,.826-.05,1.651-.126,2.477-.132,1.608-.012,3.216,.017,4.824,.026,.776,.004,1.553,0,2.365,0,0-.54,0-1.005,0-1.47-.001-.471-.087-.573-.566-.57-.948,.007-1.895,.056-2.843,.045-1.112-.013-2.223-.085-3.335-.106-.996-.019-1.993-.003-2.989-.005-.18,0-.38,.023-.369-.259,.036-.947,.065-1.894,.108-2.841,.011-.247,.146-.393,.418-.39,.276,.003,.552-.019,.828-.021,2-.016,4-.027,6-.045,.275-.002,.551-.051,.826-.05,1.296,.006,2.592,.017,3.888,.039,.316,.005,.445-.159,.453-.43,.015-.514,.004-1.029,.004-1.608-1.126,0-2.167-.009-3.208,.004Zm25.654,7.706c.955-.01,1.91-.035,2.865-.037,1.666-.003,3.333,.02,4.999,.005,.541-.005,.741,.119,.737,.661-.006,.885-.028,1.77-.067,2.655-.006,.126-.124,.322-.229,.354-.371,.112-.758,.223-1.142,.234-2.003,.058-4.006,.111-6.009,.114-1.282,.002-2.564-.088-3.846-.13-.275-.009-.554-.005-.826,.032-.099,.014-.259,.139-.261,.217-.02,.715-.012,1.431-.012,2.184,.164,0,.293,.001,.422,0,1.524-.016,3.048-.04,4.571-.046,2.418-.01,4.836-.005,7.254-.014,.434-.002,.577-.149,.59-.586,.012-.419,.007-.84-.012-1.259-.014-.319,.097-.455,.432-.453,.544,.002,1.088-.037,1.644-.059v-3.776c-.451,0-.879-.005-1.307,.001-.539,.007-.604-.047-.643-.569-.027-.359-.046-.719-.087-1.076-.047-.409-.17-.51-.583-.51-1.701,0-3.403,.001-5.104,.002-.012,0-.024,.001-.036,.001-1.354-.021-2.707-.053-4.061-.055-.398,0-.61-.205-.636-.539-.068-.86-.09-1.723-.117-2.586-.006-.196,.088-.34,.324-.346,1.738-.043,3.476-.115,5.214-.129,1.36-.011,2.72,.054,4.08,.07,.779,.009,1.558-.012,2.337-.017,.242-.002,.389-.118,.405-.356,.034-.512,.063-1.025,.063-1.538,0-.071-.175-.202-.272-.204-1.269-.023-2.539-.036-3.809-.035-.587,0-1.173,.04-1.76,.055-.91,.024-1.82,.066-2.73,.059-1.259-.01-2.518-.059-3.777-.09-.116-.003-.232,.012-.298,.016,0,.474-.003,.911,0,1.348,.003,.354-.115,.509-.47,.522-.322,.011-.645-.024-.967-.033-.21-.006-.42-.001-.662-.001v3.889h1.96l.24,2.028c.511,0,1.047,.004,1.584,0Zm36.06-7.749c-1.183,.005-2.365,.012-3.548,.019-.048,0-.096,.004-.144,.006-.407,.022-.491,.11-.499,.528-.007,.348-.007,.696-.023,1.043-.011,.23-.144,.333-.379,.333-.417,0-.835,.023-1.252,.023-.267,0-.355,.119-.345,.378,.024,.635,.027,1.271,.044,1.907,.026,.972,.09,1.944,.08,2.915-.014,1.342-.093,2.684-.121,4.027-.014,.695,.018,1.392,.036,2.087,.006,.255,.109,.456,.396,.464,.54,.014,1.08,.015,1.62,.013,.227,0,.316-.112,.276-.35-.037-.223-.047-.452-.044-.678,.015-1.308,.043-2.616,.055-3.924,.011-1.175,.008-2.349,.006-3.524,0-.141-.04-.282-.054-.423-.024-.236-.069-.474-.056-.708,.029-.515,.104-1.027,.13-1.541,.014-.283,.133-.428,.405-.435,.983-.024,1.965-.047,2.948-.049,.086,0,.235,.14,.248,.23,.062,.439,.119,.882,.12,1.324,.008,2.478-.008,4.955,0,7.433,.002,.623,.237,.77,.876,.765,.374-.003,.76,.08,1.118,.193,.127,.04,.254,.278,.269,.436,.035,.356,.006,.719-.008,1.079-.012,.279,.143,.415,.389,.409,1.175-.027,2.349-.066,3.523-.112,.275-.011,.387-.197,.394-.463,.008-.336,.022-.672,.044-1.007,.039-.592,.043-.602,.623-.588,.346,.009,.692,.072,1.038,.076,.174,.002,.407,.016,.412-.274,.019-1.043,.065-2.086,.052-3.129-.019-1.487-.102-2.972-.12-4.459-.013-1.091,.039-2.183,.055-3.275,.002-.154,.001-.324-.062-.456-.054-.112-.195-.247-.307-.256-.454-.035-.911-.028-1.367-.03-.428-.001-.613,.18-.611,.609,.003,.756,.01,1.512,.025,2.268,.011,.549,.052,1.097,.053,1.646,.001,.454-.052,.909-.053,1.363-.004,1.246,.011,2.492,.008,3.737-.001,.456-.02,.913-.059,1.366-.013,.153-.075,.366-.187,.433-.242,.144-.525,.281-.8,.299-.861,.056-1.726,.064-2.589,.073-.308,.003-.464-.145-.455-.497,.037-1.473,.051-2.947,.063-4.42,.002-.271-.061-.543-.059-.814,.012-1.271,.039-2.541,.057-3.812,.003-.239-.116-.325-.363-.316-.383,.015-.767-.009-1.151-.02-.247-.007-.36-.119-.351-.385,.017-.491,.005-.983,.005-1.518-.15-.008-.255-.018-.36-.018Zm-23.072,1.931c.288-.032,.534-.067,.782-.084,.191-.013,.386,.017,.575-.004,.835-.09,.771-.205,.762-.817-.015-1.074-.206-.977,.96-.988,2.014-.019,4.029,.003,6.043-.005,1.091-.004,2.182-.035,3.273-.054,.131-.002,.262,0,.454,0,.02,.418,.039,.818,.057,1.218,.02,.458,.14,.603,.593,.643,.382,.034,.767,.043,1.15,.05,.253,.005,.364,.102,.356,.37-.018,.608-.035,1.218-.013,1.825,.025,.68,.179,1.365,.127,2.037-.134,1.737-.053,3.471-.031,5.207,.004,.298-.149,.419-.411,.421-.324,.003-.648-.018-.971-.035-.488-.026-.75,.263-.739,.749,.009,.394-.027,.792-.083,1.182-.014,.1-.174,.247-.277,.256-.488,.041-.984,.091-1.468,.048-1.554-.139-3.104-.236-4.669-.156-.75,.038-1.494,.013-2.246,.144-.579,.101-1.195-.005-1.794-.026-.23-.008-.336-.125-.33-.371,.01-.395-.002-.791-.018-1.186-.016-.405-.165-.542-.578-.543-.324-.001-.648,.016-.972,.013-.389-.003-.525-.134-.515-.516,.022-.897,.08-1.795,.078-2.692-.002-.862-.082-1.724-.093-2.586-.017-1.343-.004-2.686-.004-4.1Zm12.567,2.673h-.105c0-.659,0-1.319,0-1.978,0-.297-.139-.502-.436-.516-.856-.042-1.713-.069-2.57-.079-.43-.005-.861,.062-1.291,.063-1.524,.001-3.047-.014-4.571-.018-.215,0-.433,.01-.646,.04-.474,.067-.55,.148-.557,.621-.027,1.892-.063,3.785-.063,5.677,0,.849,.049,1.701,.13,2.547,.052,.539,.194,.631,.723,.636,.864,.009,1.728-.005,2.591,.005,.389,.005,.778,.063,1.167,.064,.382,.001,.765-.07,1.145-.055,1.206,.046,2.411,.083,3.615-.033,.492-.047,.721-.246,.736-.736,.019-.605,.017-1.211,.017-1.816,0-.532,.018-1.055,.081-1.59,.111-.932,.031-1.887,.031-2.833Zm23.247,8.869c.018-.597,.04-1.195,.038-1.792-.004-1.308-.018-2.616-.037-3.924-.006-.426-.052-.851-.062-1.277-.008-.369,.013-.739,.013-1.109,0-.91,0-1.821-.007-2.731-.002-.285,.146-.457,.4-.526,.181-.048,.375-.06,.563-.063,1.977-.029,3.952,.115,5.932-.031,.974-.072,1.962,.024,2.943,.068,.32,.014,.614,.418,.612,.777-.003,.684-.01,1.368-.021,2.052-.007,.42-.276,.692-.713,.697-1.608,.018-3.216,.025-4.824,.041-.864,.009-1.727,.032-2.591,.042-.223,.003-.325,.084-.321,.322,.005,.335-.035,.671-.025,1.006,.004,.143,.062,.296,.134,.423,.165,.295,.478,.247,.74,.25,1.056,.01,2.112-.018,3.168-.004,1.269,.016,2.539,.055,3.807,.098,.24,.008,.477,.063,.484,.404,.035,1.725,.085,3.45,.116,5.175,.005,.282,.109,.392,.381,.387,.42-.007,.844-.037,1.259,.009,.366,.04,.535-.153,.657-.422,.066-.146,.089-.324,.087-.487-.008-.987-.042-1.973-.04-2.96,.003-1.523,.036-3.046,.04-4.569,.002-.863-.03-1.727-.046-2.59-.003-.156,.003-.312-.002-.468-.01-.252-.109-.405-.398-.383-.357,.028-.718,.021-1.075,.055-.592,.057-.923-.235-.915-.831,.004-.264,.031-.531,0-.79-.012-.098-.152-.249-.244-.256-.546-.046-1.094-.073-1.642-.077-2.783-.021-5.565-.03-8.348-.052-.228-.002-.298,.075-.287,.29,.016,.323,.018,.648,.017,.972-.001,.508-.349,.827-.852,.791-.203-.015-.407-.034-.611-.042-.445-.017-.55,.058-.654,.485-.031,.126-.035,.261-.035,.392-.02,3.359-.039,6.718-.055,10.078,0,.167-.009,.348,.048,.498,.044,.114,.185,.265,.288,.269,.658,.024,1.317,.012,2.018,.012,.014-.05,.055-.129,.057-.21Zm-38.696,4.337c.701,.656,1.144,1.46,1.16,2.433,.037,2.243,.081,4.487,.047,6.73-.019,1.241-.567,2.218-1.826,2.659-.063,.022-.119,.061-.216,.112l3.741,4.66v-17.101h-3.645c.254,.171,.527,.307,.739,.506Zm-6.664,14.443v6.48h4.865l-4.865-6.48Zm1.224-5.888c.628-.071,.946-.313,.981-.943,.057-1.023,.026-2.053,.002-3.079-.008-.315-.251-.539-.548-.594-.542-.101-1.093-.146-1.66-.216v4.919c.422-.029,.826-.041,1.226-.087Zm76.415,11.614c.108,.162,.168,.328,.209,.498,.044,.179,.103,.288,.329,.282,.213-.005,.297-.08,.335-.277,.033-.167,.102-.328,.154-.492l.069,.011v.728h.46v-1.914h-.68l-.34,1.071c-.107-.362-.154-.654-.278-.908-.171-.352-.489-.11-.736-.161v1.921h.477v-.76Zm-.735-1.154h-1.543v.53l.54,.035v1.347h.492v-1.353l.511-.028v-.53Z"/></g></g></svg>